<?xml version="1.0" encoding="utf-8"?>
<!-- Generator: Adobe Illustrator 16.0.3, SVG Export Plug-In . SVG Version: 6.00 Build 0)  -->
<!DOCTYPE svg PUBLIC "-//W3C//DTD SVG 1.1//EN" "http://www.w3.org/Graphics/SVG/1.1/DTD/svg11.dtd">
<svg version="1.1" id="Construccion" xmlns="http://www.w3.org/2000/svg" xmlns:xlink="http://www.w3.org/1999/xlink" x="0px"
	 y="0px" width="595.28px" height="841.89px" viewBox="0 0 595.28 841.89" enable-background="new 0 0 595.28 841.89"
	 xml:space="preserve">
<g>
	<g>
		<path fill="#E7E8E7" d="M190.605,391.466v11.349h-17.02v47.651h-11.348v-47.651h-17.019v-11.349H190.605z"/>
		<path fill="#E7E8E7" d="M208.53,450.466h-11.348v-59h27.794c5.152,0,9.563,1.835,13.237,5.51c3.647,3.649,5.466,8.046,5.466,13.2
			c0,4.465-1.41,8.424-4.233,11.882c-2.769,3.398-6.29,5.548-10.565,6.452l16.484,21.956h-14.182l-16.155-21.541h-6.498V450.466z
			 M208.53,417.573h16.446c2.027,0,3.769-0.725,5.221-2.176c1.423-1.426,2.138-3.17,2.138-5.222c0-2.029-0.715-3.758-2.138-5.184
			c-1.453-1.449-3.194-2.178-5.221-2.178H208.53V417.573z"/>
		<path fill="#E7E8E7" d="M251.944,391.466h11.351v59h-11.351V391.466z"/>
		<path fill="#E7E8E7" d="M308.432,426.534v-35.109h11.345v62.491l-38.56-38.56v35.067h-11.344v-62.45L308.432,426.534z"/>
		<path fill="#E7E8E7" d="M326.357,391.466h11.35v59h-11.35V391.466z"/>
		<path fill="#E7E8E7" d="M389.668,391.466v11.349H372.65v47.651h-11.348v-47.651h-17.023v-11.349H389.668z"/>
		<path fill="#E7E8E7" d="M450.062,391.466l-21.212,36.717v22.283H417.5v-22.283l-21.254-36.717h13.115l13.812,23.848l13.776-23.848
			H450.062z"/>
	</g>
</g>
</svg>
